<svg xmlns="http://www.w3.org/2000/svg" xmlns:xlink="http://www.w3.org/1999/xlink" width="500" zoomAndPan="magnify" viewBox="0 0 375 374.999991" height="500" preserveAspectRatio="xMidYMid meet" version="1.0"><defs><clipPath id="eb4b735d09"><path d="M 50.074219 187 L 311 187 L 311 319.570312 L 50.074219 319.570312 Z M 50.074219 187 " clip-rule="nonzero"/></clipPath><clipPath id="c1eb241dc0"><path d="M 64 55.570312 L 324.574219 55.570312 L 324.574219 188 L 64 188 Z M 64 55.570312 " clip-rule="nonzero"/></clipPath></defs><g clip-path="url(#eb4b735d09)"><path fill="#ffd51d" d="M 310.425781 233.476562 C 291.800781 283.480469 243.609375 319.1875 187.285156 319.1875 C 133.355469 319.1875 86.929688 286.425781 66.742188 239.746094 L 50.074219 255.007812 L 55.941406 188.183594 C 55.941406 187.996094 55.921875 187.773438 55.921875 187.585938 L 56.015625 187.585938 L 56.015625 187.324219 L 123.859375 187.398438 L 99.441406 209.785156 C 109.351562 249.1875 144.917969 278.441406 187.285156 278.441406 C 220.585938 278.441406 249.75 260.382812 265.539062 233.476562 Z M 310.425781 233.476562 " fill-opacity="1" fill-rule="nonzero"/></g><g clip-path="url(#c1eb241dc0)"><path fill="#ffd51d" d="M 109.425781 141.015625 C 125.289062 114.527344 154.246094 96.765625 187.285156 96.765625 C 229.527344 96.765625 264.949219 125.832031 275.007812 165.007812 L 250.800781 187.207031 L 277.949219 187.246094 C 277.949219 187.355469 277.988281 187.46875 277.988281 187.582031 L 318.65625 187.582031 C 318.65625 187.507812 318.65625 187.394531 318.65625 187.320312 L 324.574219 119.601562 L 307.667969 135.125 C 287.367188 88.597656 241.070312 55.984375 187.285156 55.984375 C 131.214844 55.984375 83.238281 91.394531 64.414062 141.015625 Z M 109.425781 141.015625 " fill-opacity="1" fill-rule="nonzero"/></g></svg>