<svg xmlns="http://www.w3.org/2000/svg" xmlns:xlink="http://www.w3.org/1999/xlink" width="500" zoomAndPan="magnify" viewBox="0 0 375 374.999991" height="500" preserveAspectRatio="xMidYMid meet" version="1.0"><defs><clipPath id="93d5387e57"><path d="M 87.796875 187 L 278 187 L 278 283 L 87.796875 283 Z M 87.796875 187 " clip-rule="nonzero"/></clipPath><clipPath id="1d61e02b5f"><path d="M 98 92 L 287.296875 92 L 287.296875 188 L 98 188 Z M 98 92 " clip-rule="nonzero"/></clipPath></defs><rect x="-37.5" width="450" fill="#ffffff" y="-37.499999" height="449.999989" fill-opacity="1"/><rect x="-37.5" width="450" fill="#ffffff" y="-37.499999" height="449.999989" fill-opacity="1"/><rect x="-37.5" width="450" fill="#ffffff" y="-37.499999" height="449.999989" fill-opacity="1"/><g clip-path="url(#93d5387e57)"><path fill="#ffd51d" d="M 277.015625 220.667969 C 263.480469 256.890625 228.453125 282.753906 187.519531 282.753906 C 148.324219 282.753906 114.582031 259.023438 99.914062 225.207031 L 87.796875 236.261719 L 92.0625 187.855469 C 92.0625 187.71875 92.046875 187.558594 92.046875 187.421875 L 92.117188 187.421875 L 92.117188 187.234375 L 141.421875 187.285156 L 123.675781 203.503906 C 130.878906 232.046875 156.726562 253.238281 187.519531 253.238281 C 211.722656 253.238281 232.917969 240.15625 244.394531 220.667969 Z M 277.015625 220.667969 " fill-opacity="1" fill-rule="nonzero"/></g><g clip-path="url(#1d61e02b5f)"><path fill="#ffd51d" d="M 130.933594 153.6875 C 142.464844 134.496094 163.507812 121.632812 187.519531 121.632812 C 218.21875 121.632812 243.964844 142.6875 251.273438 171.066406 L 233.679688 187.148438 L 253.414062 187.175781 C 253.414062 187.257812 253.441406 187.339844 253.441406 187.417969 L 282.996094 187.417969 C 282.996094 187.367188 282.996094 187.285156 282.996094 187.230469 L 287.296875 138.175781 L 275.011719 149.421875 C 260.257812 115.714844 226.609375 92.089844 187.519531 92.089844 C 146.769531 92.089844 111.902344 117.738281 98.21875 153.6875 Z M 130.933594 153.6875 " fill-opacity="1" fill-rule="nonzero"/></g></svg>