<svg xmlns="http://www.w3.org/2000/svg" xmlns:xlink="http://www.w3.org/1999/xlink" width="200" zoomAndPan="magnify" viewBox="0 0 150 112.499997" height="130" preserveAspectRatio="xMidYMid meet" version="1.0"><defs><clipPath id="9c8225c892"><path d="M 37.9375 18.9375 L 111.859375 18.9375 L 111.859375 92.859375 L 37.9375 92.859375 Z M 37.9375 18.9375 " clip-rule="nonzero"/></clipPath><clipPath id="be65d80e3c"><path d="M 54.199219 35.25 L 96 35.25 L 96 77.066406 L 54.199219 77.066406 Z M 54.199219 35.25 " clip-rule="nonzero"/></clipPath></defs><g clip-path="url(#9c8225c892)"><path fill="#ffd51d" d="M 111.859375 55.898438 C 111.859375 57.109375 111.800781 58.316406 111.679688 59.523438 C 111.5625 60.726562 111.386719 61.921875 111.148438 63.109375 C 110.914062 64.296875 110.621094 65.46875 110.269531 66.628906 C 109.917969 67.789062 109.507812 68.925781 109.046875 70.042969 C 108.582031 71.164062 108.066406 72.253906 107.496094 73.324219 C 106.925781 74.390625 106.304688 75.425781 105.628906 76.433594 C 104.957031 77.441406 104.238281 78.410156 103.46875 79.347656 C 102.703125 80.28125 101.890625 81.179688 101.035156 82.035156 C 100.179688 82.890625 99.28125 83.703125 98.347656 84.472656 C 97.410156 85.238281 96.4375 85.957031 95.433594 86.632812 C 94.425781 87.304688 93.390625 87.925781 92.320312 88.496094 C 91.253906 89.066406 90.160156 89.582031 89.042969 90.046875 C 87.925781 90.511719 86.785156 90.917969 85.628906 91.269531 C 84.46875 91.621094 83.296875 91.914062 82.109375 92.148438 C 80.921875 92.386719 79.726562 92.5625 78.519531 92.683594 C 77.316406 92.800781 76.109375 92.859375 74.898438 92.859375 C 73.6875 92.859375 72.480469 92.800781 71.277344 92.683594 C 70.070312 92.5625 68.875 92.386719 67.6875 92.148438 C 66.5 91.914062 65.328125 91.621094 64.167969 91.269531 C 63.011719 90.917969 61.871094 90.511719 60.753906 90.046875 C 59.636719 89.582031 58.542969 89.066406 57.476562 88.496094 C 56.40625 87.925781 55.371094 87.304688 54.363281 86.632812 C 53.359375 85.957031 52.386719 85.238281 51.449219 84.472656 C 50.515625 83.703125 49.621094 82.890625 48.761719 82.035156 C 47.90625 81.179688 47.09375 80.28125 46.328125 79.347656 C 45.558594 78.410156 44.839844 77.441406 44.167969 76.433594 C 43.496094 75.425781 42.871094 74.390625 42.300781 73.324219 C 41.730469 72.253906 41.214844 71.164062 40.75 70.042969 C 40.289062 68.925781 39.878906 67.789062 39.53125 66.628906 C 39.179688 65.46875 38.882812 64.296875 38.648438 63.109375 C 38.410156 61.921875 38.234375 60.726562 38.117188 59.523438 C 37.996094 58.316406 37.9375 57.109375 37.9375 55.898438 C 37.9375 54.6875 37.996094 53.480469 38.117188 52.277344 C 38.234375 51.070312 38.410156 49.875 38.648438 48.6875 C 38.882812 47.5 39.179688 46.328125 39.53125 45.171875 C 39.878906 44.011719 40.289062 42.875 40.75 41.753906 C 41.214844 40.636719 41.730469 39.542969 42.300781 38.476562 C 42.871094 37.410156 43.496094 36.371094 44.167969 35.367188 C 44.839844 34.359375 45.558594 33.386719 46.328125 32.453125 C 47.09375 31.515625 47.90625 30.621094 48.761719 29.765625 C 49.621094 28.910156 50.515625 28.097656 51.449219 27.328125 C 52.386719 26.5625 53.359375 25.839844 54.363281 25.167969 C 55.371094 24.496094 56.40625 23.875 57.476562 23.304688 C 58.542969 22.734375 59.636719 22.214844 60.753906 21.753906 C 61.871094 21.289062 63.011719 20.882812 64.167969 20.53125 C 65.328125 20.179688 66.5 19.886719 67.6875 19.648438 C 68.875 19.414062 70.070312 19.234375 71.277344 19.117188 C 72.480469 19 73.6875 18.9375 74.898438 18.9375 C 76.109375 18.9375 77.316406 19 78.519531 19.117188 C 79.726562 19.234375 80.921875 19.414062 82.109375 19.648438 C 83.296875 19.886719 84.46875 20.179688 85.628906 20.53125 C 86.785156 20.882812 87.925781 21.289062 89.042969 21.753906 C 90.160156 22.214844 91.253906 22.734375 92.320312 23.304688 C 93.390625 23.875 94.425781 24.496094 95.433594 25.167969 C 96.4375 25.839844 97.410156 26.5625 98.347656 27.328125 C 99.28125 28.097656 100.179688 28.910156 101.035156 29.765625 C 101.890625 30.621094 102.703125 31.515625 103.46875 32.453125 C 104.238281 33.386719 104.957031 34.359375 105.628906 35.367188 C 106.304688 36.371094 106.925781 37.410156 107.496094 38.476562 C 108.066406 39.542969 108.582031 40.636719 109.046875 41.753906 C 109.507812 42.875 109.917969 44.011719 110.269531 45.171875 C 110.621094 46.328125 110.914062 47.5 111.148438 48.6875 C 111.386719 49.875 111.5625 51.070312 111.679688 52.277344 C 111.800781 53.480469 111.859375 54.6875 111.859375 55.898438 Z M 111.859375 55.898438 " fill-opacity="1" fill-rule="nonzero"/></g><g clip-path="url(#be65d80e3c)"><path fill="#000000" d="M 95.867188 35.816406 C 95.867188 35.804688 95.867188 35.796875 95.867188 35.792969 C 95.867188 35.785156 95.863281 35.78125 95.863281 35.773438 C 95.863281 35.757812 95.859375 35.746094 95.855469 35.730469 C 95.855469 35.722656 95.855469 35.710938 95.851562 35.703125 C 95.851562 35.695312 95.847656 35.691406 95.84375 35.683594 C 95.839844 35.671875 95.835938 35.660156 95.832031 35.648438 C 95.828125 35.640625 95.824219 35.628906 95.820312 35.621094 C 95.816406 35.613281 95.8125 35.605469 95.808594 35.597656 C 95.804688 35.589844 95.796875 35.582031 95.792969 35.570312 C 95.789062 35.5625 95.78125 35.554688 95.777344 35.546875 C 95.769531 35.539062 95.765625 35.53125 95.757812 35.527344 C 95.753906 35.519531 95.746094 35.511719 95.742188 35.503906 C 95.734375 35.496094 95.726562 35.488281 95.71875 35.480469 C 95.710938 35.476562 95.703125 35.46875 95.695312 35.460938 C 95.691406 35.457031 95.683594 35.449219 95.675781 35.445312 C 95.667969 35.441406 95.660156 35.433594 95.652344 35.429688 C 95.640625 35.421875 95.632812 35.417969 95.621094 35.410156 C 95.617188 35.410156 95.609375 35.402344 95.601562 35.402344 C 95.59375 35.394531 95.582031 35.394531 95.574219 35.390625 C 95.5625 35.386719 95.550781 35.378906 95.539062 35.375 C 95.53125 35.375 95.527344 35.371094 95.519531 35.371094 C 95.507812 35.367188 95.5 35.367188 95.492188 35.363281 C 95.476562 35.363281 95.464844 35.359375 95.449219 35.359375 C 95.441406 35.359375 95.4375 35.355469 95.429688 35.355469 C 95.425781 35.355469 95.410156 35.355469 95.378906 35.351562 C 94.964844 35.335938 92.226562 35.253906 88.429688 36.210938 C 88.378906 36.222656 88.328125 36.234375 88.277344 36.25 C 88.21875 36.265625 88.160156 36.28125 88.101562 36.296875 C 88.019531 36.316406 87.9375 36.339844 87.851562 36.363281 C 87.8125 36.371094 87.773438 36.382812 87.734375 36.394531 C 87.605469 36.429688 87.472656 36.464844 87.34375 36.503906 C 87.339844 36.503906 87.339844 36.503906 87.339844 36.503906 C 82.917969 37.792969 76.585938 40.761719 71.40625 47.597656 C 69.789062 47.378906 66.863281 47.308594 63.707031 48.816406 C 59.601562 50.777344 56.429688 54.738281 54.277344 60.589844 C 54.203125 60.785156 54.273438 61.007812 54.445312 61.128906 C 54.523438 61.1875 54.621094 61.21875 54.714844 61.21875 C 54.820312 61.21875 54.921875 61.179688 55.007812 61.113281 C 55.074219 61.058594 61.398438 55.9375 66.058594 57.347656 C 65.855469 57.882812 65.652344 58.425781 65.460938 58.980469 L 65.199219 58.71875 C 65.019531 58.535156 64.722656 58.535156 64.542969 58.71875 L 63.179688 60.085938 C 62.996094 60.265625 62.996094 60.5625 63.179688 60.746094 L 64.285156 61.855469 L 62.503906 63.644531 C 62.320312 63.824219 62.320312 64.121094 62.503906 64.304688 L 66.984375 68.792969 C 67.074219 68.882812 67.191406 68.929688 67.3125 68.929688 C 67.429688 68.929688 67.550781 68.882812 67.640625 68.792969 L 69.425781 67.003906 L 70.53125 68.117188 C 70.625 68.207031 70.742188 68.253906 70.863281 68.253906 C 70.980469 68.253906 71.101562 68.207031 71.191406 68.117188 L 72.554688 66.75 C 72.738281 66.566406 72.738281 66.273438 72.554688 66.089844 L 72.292969 65.828125 C 72.847656 65.636719 73.390625 65.433594 73.921875 65.226562 C 75.332031 69.898438 70.222656 76.238281 70.167969 76.304688 C 70.035156 76.46875 70.027344 76.699219 70.148438 76.871094 C 70.238281 76.996094 70.378906 77.066406 70.527344 77.066406 C 70.582031 77.066406 70.636719 77.054688 70.6875 77.035156 C 76.527344 74.882812 80.480469 71.703125 82.4375 67.585938 C 83.941406 64.425781 83.871094 61.492188 83.652344 59.871094 C 90.472656 54.679688 93.433594 48.332031 94.71875 43.898438 C 96.011719 39.433594 95.882812 36.144531 95.867188 35.816406 Z M 55.742188 59.414062 C 57.773438 54.621094 60.585938 51.339844 64.109375 49.65625 C 66.742188 48.398438 69.203125 48.320312 70.769531 48.464844 C 69.082031 50.839844 67.617188 53.53125 66.40625 56.480469 C 62.578125 55.265625 57.96875 57.890625 55.742188 59.414062 Z M 67.3125 67.804688 L 63.492188 63.972656 L 64.945312 62.515625 L 68.765625 66.34375 Z M 70.863281 67.125 L 69.753906 66.015625 L 65.273438 61.527344 L 64.164062 60.414062 L 64.871094 59.707031 L 71.566406 66.417969 Z M 81.597656 67.183594 C 79.917969 70.714844 76.644531 73.53125 71.863281 75.570312 C 73.378906 73.335938 76 68.71875 74.789062 64.882812 C 77.730469 63.667969 80.414062 62.203125 82.789062 60.507812 C 82.929688 62.078125 82.851562 64.542969 81.597656 67.183594 Z M 82.871094 59.292969 C 80.300781 61.21875 77.328125 62.863281 74.027344 64.183594 C 73.238281 64.503906 72.40625 64.804688 71.558594 65.09375 L 66.195312 59.714844 C 66.480469 58.867188 66.785156 58.035156 67.101562 57.242188 C 68.417969 53.9375 70.0625 50.953125 71.980469 48.378906 C 76.851562 41.847656 82.800781 38.890625 87.105469 37.550781 C 87.4375 39.171875 88.226562 40.640625 89.410156 41.828125 C 90.589844 43.011719 92.058594 43.800781 93.675781 44.136719 C 92.339844 48.449219 89.390625 54.414062 82.871094 59.292969 Z M 94.945312 36.347656 C 94.945312 36.371094 94.945312 36.394531 94.945312 36.417969 C 94.945312 36.433594 94.945312 36.453125 94.945312 36.46875 C 94.945312 36.511719 94.945312 36.554688 94.941406 36.601562 C 94.941406 36.613281 94.941406 36.625 94.941406 36.640625 C 94.941406 36.675781 94.941406 36.710938 94.941406 36.75 C 94.9375 36.769531 94.9375 36.789062 94.9375 36.808594 C 94.9375 36.84375 94.9375 36.882812 94.933594 36.917969 C 94.933594 36.9375 94.933594 36.957031 94.933594 36.980469 C 94.929688 37.03125 94.929688 37.089844 94.925781 37.148438 C 94.925781 37.152344 94.925781 37.160156 94.925781 37.167969 C 94.921875 37.226562 94.917969 37.285156 94.917969 37.347656 C 94.914062 37.367188 94.914062 37.386719 94.914062 37.40625 C 94.910156 37.457031 94.90625 37.503906 94.902344 37.554688 C 94.902344 37.578125 94.902344 37.597656 94.898438 37.621094 C 94.894531 37.683594 94.890625 37.746094 94.886719 37.808594 C 94.886719 37.820312 94.886719 37.832031 94.882812 37.839844 C 94.878906 37.914062 94.871094 37.992188 94.867188 38.070312 C 94.863281 38.089844 94.863281 38.113281 94.859375 38.136719 C 94.855469 38.195312 94.851562 38.253906 94.84375 38.3125 C 94.84375 38.339844 94.839844 38.363281 94.835938 38.390625 C 94.832031 38.457031 94.824219 38.527344 94.816406 38.597656 C 94.816406 38.613281 94.8125 38.628906 94.8125 38.644531 C 94.800781 38.730469 94.792969 38.820312 94.78125 38.910156 C 94.78125 38.929688 94.777344 38.953125 94.773438 38.976562 C 94.765625 39.042969 94.757812 39.113281 94.75 39.1875 C 94.746094 39.214844 94.742188 39.242188 94.738281 39.273438 C 94.726562 39.34375 94.71875 39.417969 94.707031 39.496094 C 94.703125 39.515625 94.703125 39.539062 94.699219 39.5625 C 94.683594 39.65625 94.671875 39.757812 94.65625 39.855469 C 94.652344 39.875 94.648438 39.894531 94.648438 39.914062 C 94.632812 39.996094 94.621094 40.078125 94.609375 40.164062 C 94.601562 40.191406 94.597656 40.222656 94.59375 40.253906 C 94.578125 40.335938 94.566406 40.414062 94.550781 40.496094 C 94.546875 40.523438 94.542969 40.546875 94.539062 40.574219 C 94.519531 40.683594 94.5 40.792969 94.480469 40.902344 C 94.476562 40.914062 94.472656 40.921875 94.472656 40.933594 C 94.453125 41.03125 94.433594 41.132812 94.414062 41.234375 C 94.40625 41.265625 94.402344 41.296875 94.394531 41.328125 C 94.378906 41.414062 94.359375 41.5 94.339844 41.589844 C 94.332031 41.617188 94.328125 41.648438 94.320312 41.675781 C 94.269531 41.90625 94.21875 42.144531 94.160156 42.386719 C 94.152344 42.417969 94.144531 42.445312 94.136719 42.476562 C 94.113281 42.570312 94.089844 42.664062 94.066406 42.761719 C 94.054688 42.792969 94.046875 42.824219 94.039062 42.855469 C 94.007812 42.976562 93.976562 43.097656 93.941406 43.222656 C 93.941406 43.222656 93.941406 43.222656 93.941406 43.226562 C 93.941406 43.230469 93.9375 43.234375 93.9375 43.238281 C 92.46875 42.949219 91.136719 42.238281 90.066406 41.167969 C 89 40.09375 88.289062 38.761719 88 37.289062 C 88.132812 37.25 88.261719 37.214844 88.394531 37.183594 C 88.414062 37.175781 88.4375 37.171875 88.457031 37.164062 C 88.570312 37.136719 88.683594 37.109375 88.796875 37.082031 C 88.804688 37.078125 88.816406 37.074219 88.828125 37.070312 C 91.757812 36.355469 94.039062 36.277344 94.945312 36.277344 C 94.945312 36.28125 94.945312 36.289062 94.945312 36.292969 C 94.945312 36.3125 94.945312 36.328125 94.945312 36.347656 Z M 94.945312 36.347656 " fill-opacity="1" fill-rule="nonzero"/></g><path fill="#000000" d="M 81.976562 45.097656 C 79.675781 45.097656 77.804688 46.972656 77.804688 49.277344 C 77.804688 51.582031 79.675781 53.457031 81.976562 53.457031 C 84.273438 53.457031 86.144531 51.582031 86.144531 49.277344 C 86.144531 46.972656 84.273438 45.097656 81.976562 45.097656 Z M 81.976562 52.523438 C 80.1875 52.523438 78.734375 51.066406 78.734375 49.277344 C 78.734375 47.488281 80.1875 46.03125 81.976562 46.03125 C 83.761719 46.03125 85.214844 47.488281 85.214844 49.277344 C 85.214844 51.066406 83.761719 52.523438 81.976562 52.523438 Z M 81.976562 52.523438 " fill-opacity="1" fill-rule="nonzero"/><path fill="#000000" d="M 63.625 67.667969 C 63.445312 67.484375 63.152344 67.484375 62.96875 67.667969 L 57.125 73.523438 C 56.945312 73.703125 56.945312 74 57.125 74.183594 C 57.21875 74.273438 57.335938 74.320312 57.453125 74.320312 C 57.574219 74.320312 57.691406 74.273438 57.785156 74.183594 L 63.625 68.328125 C 63.808594 68.144531 63.808594 67.847656 63.625 67.667969 Z M 63.625 67.667969 " fill-opacity="1" fill-rule="nonzero"/><path fill="#000000" d="M 65.867188 69.914062 C 65.6875 69.730469 65.390625 69.730469 65.210938 69.914062 L 61.394531 73.738281 C 61.214844 73.917969 61.214844 74.214844 61.394531 74.398438 C 61.484375 74.488281 61.605469 74.535156 61.722656 74.535156 C 61.84375 74.535156 61.960938 74.488281 62.054688 74.398438 L 65.867188 70.574219 C 66.050781 70.390625 66.050781 70.097656 65.867188 69.914062 Z M 65.867188 69.914062 " fill-opacity="1" fill-rule="nonzero"/><path fill="#000000" d="M 69.984375 70.285156 C 69.800781 70.101562 69.507812 70.101562 69.324219 70.285156 L 65.328125 74.292969 C 65.144531 74.472656 65.144531 74.769531 65.328125 74.953125 C 65.417969 75.042969 65.535156 75.089844 65.65625 75.089844 C 65.773438 75.089844 65.894531 75.042969 65.984375 74.953125 L 69.984375 70.945312 C 70.164062 70.761719 70.164062 70.464844 69.984375 70.285156 Z M 69.984375 70.285156 " fill-opacity="1" fill-rule="nonzero"/><path fill="#000000" d="M 61.015625 61.957031 C 61.195312 61.773438 61.195312 61.480469 61.015625 61.296875 C 60.832031 61.113281 60.539062 61.113281 60.355469 61.296875 L 56.359375 65.304688 C 56.175781 65.484375 56.175781 65.78125 56.359375 65.964844 C 56.449219 66.054688 56.570312 66.101562 56.6875 66.101562 C 56.808594 66.101562 56.925781 66.054688 57.015625 65.964844 Z M 61.015625 61.957031 " fill-opacity="1" fill-rule="nonzero"/><path fill="#000000" d="M 57.570312 69.902344 L 61.386719 66.078125 C 61.566406 65.898438 61.566406 65.601562 61.386719 65.421875 C 61.203125 65.238281 60.910156 65.238281 60.726562 65.421875 L 56.910156 69.242188 C 56.730469 69.425781 56.730469 69.722656 56.910156 69.902344 C 57.003906 69.996094 57.121094 70.039062 57.242188 70.039062 C 57.359375 70.039062 57.480469 69.996094 57.570312 69.902344 Z M 57.570312 69.902344 " fill-opacity="1" fill-rule="nonzero"/></svg>